<?xml version="1.0" encoding="utf-8"?>
<!-- Generator: Adobe Illustrator 15.0.0, SVG Export Plug-In . SVG Version: 6.00 Build 0)  -->
<!DOCTYPE svg PUBLIC "-//W3C//DTD SVG 1.1//EN" "http://www.w3.org/Graphics/SVG/1.1/DTD/svg11.dtd">
<svg version="1.1" id="Layer_1" xmlns="http://www.w3.org/2000/svg" xmlns:xlink="http://www.w3.org/1999/xlink" x="0px" y="0px"
	 viewBox="33.72 -126.341 156.711 156.715"
	 enable-background="new 33.72 -126.341 156.711 156.715" xml:space="preserve">
<path fill="#EF3E42" d="M112.259-15.301c0.916,0,1.655-0.741,1.655-1.655s-0.739-1.654-1.655-1.654c-0.919,0-1.66,0.741-1.66,1.654
	C110.598-16.042,111.34-15.301,112.259-15.301"/>
<path fill="none" stroke="#231F20" stroke-width="1.1665" d="M112.259-15.301c0.916,0,1.655-0.741,1.655-1.655
	s-0.739-1.654-1.655-1.654c-0.919,0-1.66,0.741-1.66,1.654C110.598-16.042,111.34-15.301,112.259-15.301z"/>
<path fill="#FFFFFF" d="M111.81,28.449c42.113,0,76.248-34.139,76.248-76.248c0-42.113-34.135-76.248-76.248-76.248
	c-42.113,0-76.251,34.135-76.251,76.249C35.559-5.69,69.698,28.449,111.81,28.449"/>
<path fill="#FFFFFF" d="M112.079,28.321c42.14,0,76.303-34.165,76.303-76.306c0-42.137-34.163-76.303-76.303-76.303
	c-42.144,0-76.307,34.166-76.307,76.303C35.773-5.844,69.936,28.321,112.079,28.321"/>
<path fill="#FFFFFF" d="M112.079,4.773c29.131,0,52.758-23.621,52.758-52.756c0-29.139-23.627-52.759-52.758-52.759
	c-29.14,0-52.763,23.62-52.763,52.759C59.317-18.848,82.94,4.773,112.079,4.773"/>
<path fill="#00529B" d="M112.079,28.431c42.199,0,76.41-34.211,76.41-76.414c0-42.202-34.211-76.417-76.41-76.417
	c-42.206,0-76.417,34.215-76.417,76.417C35.663-5.78,69.874,28.431,112.079,28.431"/>
<path fill="none" stroke="#FFFFFF" stroke-width="3.885" d="M112.079,28.431c42.199,0,76.41-34.211,76.41-76.414
	c0-42.202-34.211-76.417-76.41-76.417c-42.206,0-76.417,34.215-76.417,76.417C35.663-5.78,69.874,28.431,112.079,28.431z"/>
<path fill="#FFFFFF" d="M112.079-2.625c25.048,0,45.354-20.309,45.354-45.358c0-25.052-20.306-45.36-45.354-45.36
	c-25.056,0-45.358,20.308-45.358,45.36C66.721-22.933,87.024-2.625,112.079-2.625"/>
<path fill="#00529B" d="M112.079-7.975c22.094,0,40.003-17.913,40.003-40.007c0-22.093-17.909-40.003-40.003-40.003
	c-22.094,0-40.007,17.911-40.007,40.003C72.073-25.888,89.986-7.975,112.079-7.975"/>
<path fill="#FFFFFF" d="M52.841-56.384c1.533,0,2.771-1.239,2.771-2.77c0-1.531-1.239-2.771-2.771-2.771
	c-1.53,0-2.769,1.238-2.769,2.771C50.072-57.624,51.311-56.384,52.841-56.384"/>
<path fill="#FFFFFF" d="M172.572-56.384c1.532,0,2.776-1.239,2.776-2.77c0-1.531-1.243-2.771-2.776-2.771
	c-1.526,0-2.77,1.238-2.77,2.771C169.802-57.624,171.046-56.384,172.572-56.384"/>
<polyline fill="#FFFFFF" points="99.472,3.219 101.091,14.88 101.127,14.888 103.315,4.049 105.865,4.601 102.544,21.033 
	99.814,20.446 97.673,6.205 97.643,6.198 94.969,19.4 92.423,18.848 95.744,2.417 "/>
<path fill="#FFFFFF" d="M91.387,0.444c2.733,1.237,2.72,4.228,1.882,6.16c-0.719,1.66-2.199,2.837-3.673,2.916l-0.639,8.005
	l-2.503-1.134l0.597-7.278l-1.819-0.825l-2.733,6.311l-2.386-1.081l6.586-15.201L91.387,0.444 M87.386,6.178
	c1.039,0.468,2.593,1.268,3.415-0.625c0.904-2.092-0.773-2.642-1.948-3.175l-0.887-0.401L86.35,5.708L87.386,6.178z"/>
<polyline fill="#FFFFFF" points="84.055,0.257 79.489,-2.887 77.222,0.295 81.01,2.903 79.402,5.161 75.615,2.554 73.226,5.909 
	78.059,9.232 76.449,11.488 69.445,6.671 78.925,-6.636 85.66,-2.003 "/>
<polyline fill="#FFFFFF" points="68.248,-13.914 66.332,-16.823 54.687,-9.17 53.209,-11.419 64.854,-19.071 62.941,-21.98 
	65.32,-23.545 70.626,-15.473 "/>
<polyline fill="#FFFFFF" points="71.302,-5.061 75.915,-9.625 77.769,-7.706 65.955,3.974 64.108,2.056 69.297,-3.081 
	66.249,-6.238 61.06,-1.108 59.21,-3.029 71.019,-14.709 72.865,-12.792 68.255,-8.227 "/>
<path fill="#FFFFFF" d="M65.145-23.796L54.504-19.36c-3.165,1.318-5.716,0.354-6.808-2.217c-1.091-2.561-0.007-5.043,3.159-6.363
	l10.641-4.431l1.034,2.439l-9.649,4.023c-2.568,1.067-3.099,2.012-2.575,3.248c0.528,1.235,1.578,1.515,4.146,0.445l9.652-4.021"/>
<path fill="#FFFFFF" d="M52.485-31.357c-4.066,0.497-8.517-0.624-8.965-4.311c-0.446-3.688,3.608-5.853,7.67-6.346
	c4.063-0.5,8.514,0.627,8.962,4.313C60.601-34.018,56.548-31.854,52.485-31.357 M51.512-39.359c-2.075,0.254-5.709,1.15-5.441,3.377
	c0.269,2.227,4.019,2.223,6.093,1.967c2.072-0.25,5.711-1.153,5.441-3.376C57.332-39.614,53.586-39.614,51.512-39.359z"/>
<path fill="#FFFFFF" d="M135.856,17.452l-2.605,0.749l-1.974-3.746l-3.768,1.076l0.307,4.227l-2.6,0.744l-0.99-16.925l3.438-0.987
	L135.856,17.452 M126.795,5.801l-0.064,0.018l0.569,7.054l2.752-0.788L126.795,5.801z"/>
<polyline fill="#FFFFFF" points="140.196,12.247 145.1,9.752 146.368,12.247 139.112,15.945 131.607,1.241 133.966,0.038 "/>
<polyline fill="#00529B" points="142.689,9.825 145.067,14.398 148.549,12.749 145.617,8.357 "/>
<polyline fill="#FFFFFF" points="148.131,11.471 138.768,-2.289 140.973,-3.788 150.333,9.973 "/>
<polyline fill="#FFFFFF" points="150.86,-8.085 146.597,-4.43 149.185,-1.416 152.473,-4.233 154.31,-2.088 151.023,0.724 
	155.592,6.044 153.563,7.781 142.734,-4.836 149.017,-10.226 "/>
<polyline fill="#00529B" points="146.36,-10.971 149.866,-7.095 151.711,-8.572 148.209,-12.816 "/>
<polyline fill="#00529B" points="150.602,-5.438 154.108,-1.564 155.949,-3.039 152.449,-7.284 "/>
<path fill="#FFFFFF" d="M158.194-22.322c1.519-2.635,4.418-2.268,6.195-1.186c1.525,0.923,2.491,2.563,2.396,4.076l7.696,1.586
	l-1.393,2.41l-6.998-1.459l-1.01,1.75l5.802,3.517l-1.328,2.299l-13.979-8.478L158.194-22.322 M163.289-17.582
	c0.576-1.002,1.536-2.485-0.208-3.545c-1.923-1.164-2.653,0.48-3.31,1.609l-0.494,0.856l3.433,2.078L163.289-17.582z"/>
<polyline fill="#FFFFFF" points="161.615,-29.883 173.292,-30.158 173.302,-30.189 162.894,-33.604 163.745,-36.072 
	179.535,-30.898 178.618,-28.249 164.334,-27.756 164.325,-27.724 177.008,-23.566 176.158,-21.094 160.368,-26.271 "/>
<polyline fill="#FFFFFF" points="180.523,-35.697 163.924,-38.144 164.332,-40.722 180.928,-38.271 "/>
<path fill="#FFFFFF" d="M181.443-51.973v2.655l-4.208,0.854v3.841l4.208,0.854v2.658l-16.79-3.648v-3.505L181.443-51.973
	 M167.545-46.579v0.066l7.039,1.371v-2.806L167.545-46.579z"/>
<polyline fill="#FFFFFF" points="66.507,-96.671 64.215,-94.093 74.527,-84.91 72.752,-82.918 62.438,-92.101 60.141,-89.525 
	58.036,-91.403 64.402,-98.546 "/>
<path fill="#FFFFFF" d="M78.763-99.419c2.585,3.169,4.011,7.536,1.135,9.88c-2.873,2.34-6.86,0.065-9.445-3.104
	c-2.586-3.177-4.008-7.537-1.136-9.88C72.193-104.868,76.177-102.592,78.763-99.419 M72.526-94.334
	c1.318,1.618,4.015,4.214,5.75,2.799c1.733-1.412-0.266-4.578-1.583-6.195c-1.32-1.62-4.02-4.216-5.752-2.805
	C69.203-99.119,71.206-95.953,72.526-94.334z"/>
<polyline fill="#FFFFFF" points="84.41,-111.232 88.262,-113.092 95.319,-98.459 92.972,-97.328 87.348,-108.988 87.317,-108.975 
	90.776,-96.267 88.67,-95.249 80.878,-105.867 80.852,-105.851 86.475,-94.188 84.127,-93.057 77.068,-107.69 80.92,-109.551 
	87.71,-99.889 87.742,-99.902 "/>
<path fill="#FFFFFF" d="M106.828-100.424l-0.611-16.594l3.743-0.146c4.211-0.159,5.348,1.681,5.448,4.367
	c0.056,1.558-0.486,2.707-1.509,3.497c1.212,0.677,1.964,2.082,2.026,3.746c0.103,2.857-1.646,4.845-4.019,4.935L106.828-100.424
	 M111.028-103.21c0.783-0.027,2.31,0.038,2.216-2.479c-0.083-2.257-1.564-2.502-4.077-2.171l0.173,4.716L111.028-103.21z
	 M109.073-110.376c1.919-0.073,3.752,0.135,3.669-2.147c-0.089-2.368-1.981-2.041-3.821-1.968L109.073-110.376z"/>
<polyline fill="#FFFFFF" points="117.353,-100.551 119.067,-116.895 121.659,-116.618 119.951,-100.275 "/>
<polyline fill="#FFFFFF" points="125.681,-101.742 130.941,-100.448 130.286,-97.73 122.493,-99.653 126.347,-115.658 
	128.882,-115.032 "/>
<polyline fill="#00529B" points="129.1,-101.949 127.932,-96.944 131.58,-95.921 132.225,-101.149 "/>
<polyline fill="#FFFFFF" points="142.659,-106.962 137.646,-109.192 136.075,-105.609 140.237,-103.757 139.117,-101.215 
	134.964,-103.068 133.307,-99.288 138.609,-96.927 137.494,-94.386 129.806,-97.808 136.384,-112.8 143.776,-109.506 "/>
<polyline fill="#FFFFFF" points="152.854,-85.725 156.466,-81.603 154.369,-79.77 149.02,-85.873 161.387,-96.703 163.122,-94.717 
	"/>
<polyline fill="#00529B" points="155.808,-83.912 151.969,-80.498 154.411,-77.543 157.936,-81.437 "/>
<path fill="#FFFFFF" d="M172.577-81.64l-9.479,6.017c-2.815,1.795-5.427,1.27-6.896-1.042c-1.472-2.31-0.841-4.893,1.983-6.681
	l9.48-6.02l1.397,2.195l-8.6,5.464c-2.291,1.454-2.647,2.452-1.937,3.563c0.712,1.115,1.764,1.219,4.05-0.235l8.606-5.46"/>
<path fill="#FFFFFF" d="M159.605-71.066l15.293-6.193l1.457,3.463c1.633,3.891,0.32,5.582-2.157,6.583
	c-1.437,0.583-2.703,0.463-3.801-0.231c-0.208,1.363-1.253,2.549-2.784,3.166c-2.633,1.069-5.111,0.103-6.032-2.092L159.605-71.066
	 M163.693-68.074c0.303,0.726,0.775,2.179,3.096,1.237c2.085-0.843,1.787-2.313,0.595-4.557l-4.351,1.758L163.693-68.074z
	 M169.702-72.333c0.747,1.776,1.199,3.562,3.298,2.709c2.186-0.884,1.209-2.548,0.489-4.247L169.702-72.333z"/>
<path fill="#FFFFFF" d="M65.648-73.404l-1.042,2.452l-4.198-0.766l-1.509,3.552l3.532,2.344l-1.043,2.458l-13.99-9.574l1.377-3.245
	L65.648-73.404 M50.765-73.553l-0.023,0.063l5.923,3.862l1.102-2.592L50.765-73.553z"/>
<path fill="#FFFFFF" d="M54.359-46.711c1.126-0.252,2.276-0.75,2.276-1.802c0-0.853-0.773-1.588-1.882-1.588
	c-3.197,0-1.104,6.113-7.167,6.113c-1.988,0-4.953-1.204-4.953-4.413c0-2.467,1.504-4.258,4.681-4.661l0.48,2.608
	c-1.378,0.233-2.403,0.803-2.403,2.037c0,1.021,0.667,1.875,2.068,1.875c3.262,0,1.38-6.117,6.921-6.117
	c2.924,0,5.013,1.974,5.013,4.229c0,2.203-1.775,3.856-4.516,4.077"/>
<path fill="#FFFFFF" d="M122.236,15.571c-0.166,3.359-1.802,5.507-4.503,5.693c-3.699,0.261-5.65-3.891-5.94-7.974
	c-0.29-4.084,1.054-8.469,4.75-8.726c2.669-0.187,4.585,1.604,5.264,5.012l-2.437,0.587c-0.365-1.668-1.076-3.146-2.645-3.039
	c-2.229,0.155-2.416,3.897-2.268,5.979s0.859,5.759,3.095,5.603c1.545-0.108,2.056-1.671,2.191-3.357"/>
<path fill="#FFFFFF" d="M162.07-11.866c2.985,2.795,4.983,6.931,2.45,9.642c-2.534,2.706-6.793,0.992-9.78-1.809
	c-2.989-2.796-4.987-6.934-2.451-9.642C154.824-16.381,159.081-14.665,162.07-11.866 M156.567-5.987
	c1.526,1.43,4.547,3.638,6.079,2.006c1.525-1.632-0.88-4.505-2.403-5.932c-1.526-1.429-4.55-3.637-6.079-2.004
	C152.635-10.285,155.041-7.409,156.567-5.987z"/>
<path fill="#FFFFFF" d="M152.073-90.34c-2.417,2.337-5.079,2.782-7.186,1.081c-2.875-2.337-1.467-6.705,1.112-9.877
	c2.579-3.176,6.557-5.454,9.44-3.117c2.073,1.682,2.245,4.297,0.421,7.247l-2.187-1.236c0.873-1.468,1.363-3.029,0.146-4.019
	c-1.74-1.408-4.427,1.188-5.744,2.807c-1.317,1.623-3.308,4.792-1.568,6.2c1.206,0.982,2.646,0.187,3.897-0.953"/>
<path fill="#FFFFFF" d="M104.322-108.564c0.799,4.011,0.011,8.533-3.628,9.254c-3.645,0.722-6.1-3.159-6.9-7.173
	c-0.798-4.015-0.01-8.534,3.627-9.256C101.063-116.458,103.522-112.579,104.322-108.564 M96.417-107.004
	c0.408,2.05,1.578,5.614,3.777,5.179c2.195-0.439,1.912-4.175,1.504-6.221c-0.408-2.051-1.577-5.606-3.775-5.175
	C95.73-112.785,96.01-109.047,96.417-107.004z"/>
<path fill="#FFFFFF" d="M56.955-89.998l9.386,6.183c2.793,1.836,3.388,4.429,1.882,6.714c-1.512,2.29-4.125,2.766-6.916,0.929
	l-9.389-6.182l1.436-2.175l8.514,5.606c2.269,1.496,3.324,1.412,4.049,0.307c0.725-1.101,0.386-2.106-1.882-3.597l-8.513-5.608"/>
<path fill="#ED1C2E" d="M112.259-15.301c0.916,0,1.655-0.741,1.655-1.655s-0.739-1.654-1.655-1.654c-0.919,0-1.66,0.741-1.66,1.654
	C110.598-16.042,111.34-15.301,112.259-15.301"/>
<path fill="none" stroke="#231F20" stroke-width="1.1665" d="M112.259-15.301c0.916,0,1.655-0.741,1.655-1.655
	s-0.739-1.654-1.655-1.654c-0.919,0-1.66,0.741-1.66,1.654C110.598-16.042,111.34-15.301,112.259-15.301z"/>
<path fill="#ED1C2E" d="M112.259-17.268c2.532,0,4.584-2.054,4.584-4.59c0-2.531-2.054-4.585-4.584-4.585
	c-2.534,0-4.588,2.054-4.588,4.585C107.671-19.323,109.725-17.268,112.259-17.268"/>
<path fill="#ED1C2E" d="M116.719-76.45c0.045-8.64-8.989-8.664-8.961-0.317"/>
<path fill="#EF3E42" d="M114.786-76.811c0-1.889-2.928-4.505-2.885-0.18"/>
<path fill="#ED1C2E" d="M112.079-76.814c4.143,0,6.303,0.542,9.006,2.165s2.349,1.08,2.524,4.321
	c0.179,3.246,2.208,22.052,5.404,28.112c3.422,6.483,6.483,6.85,8.647,8.288l1.62,6.486c-9.187,3.968-17.835,6.488-27.387,6.308"/>
<path fill="#ED1C2E" d="M112.079-76.814c-4.149,0-6.307,0.542-9.01,2.165c-2.703,1.623-2.344,1.08-2.523,4.321
	c-0.179,3.246-2.21,22.052-5.41,28.112c-3.422,6.483-6.483,6.85-8.645,8.288l-1.623,6.486c9.19,3.968,17.838,6.488,27.39,6.308"/>
<path fill="none" stroke="#231F20" stroke-width="1.1665" d="M86.854-33.929c8.828,3.604,28.653,10.271,51.176,0"/>
<polyline fill="#FFFFFF" points="107.971,-70.305 97.476,-33.877 105.203,-33.877 106.514,-39.56 117.151,-39.56 118.9,-33.877 
	126.329,-33.877 115.839,-70.305 "/>
<polygon fill="none" stroke="#231F20" stroke-width="1.1665" points="107.971,-70.305 97.476,-33.877 105.203,-33.877 
	106.514,-39.56 117.151,-39.56 118.9,-33.877 126.329,-33.877 115.839,-70.305 "/>
<polyline fill="#EF3E42" points="111.903,-59.957 108.406,-46.553 115.546,-46.553 "/>
<path fill="none" stroke="#231F20" stroke-width="1.1665" d="M111.903-59.957l-3.497,13.404h7.139L111.903-59.957z M107.671-21.312
	c0.182,2.168,2.054,4.043,4.588,4.043c2.532,0,4.584-1.691,4.584-4.043 M114.786-76.811c0-1.889-2.928-4.505-2.885-0.18
	 M116.719-76.45c0.045-8.64-8.989-8.664-8.961-0.317 M112.079-76.814c-4.149,0-6.307,0.542-9.01,2.165
	c-2.703,1.623-2.344,1.08-2.523,4.321c-0.179,3.246-2.21,22.052-5.41,28.112c-3.422,6.483-6.483,6.85-8.645,8.288l-1.623,6.486
	c9.19,3.968,17.838,6.488,27.39,6.308 M112.079-76.814c4.143,0,6.303,0.542,9.006,2.165s2.349,1.08,2.524,4.321
	c0.179,3.246,2.208,22.052,5.404,28.112c3.422,6.483,6.483,6.85,8.647,8.288l1.62,6.486c-9.187,3.968-17.835,6.488-27.387,6.308"/>
<path fill="#231F20" d="M93.41-39.717h5.828l-2.002-8.193C96.324-44.449,95.047-41.536,93.41-39.717"/>
<polyline fill="#FFFFFF" points="88.653,-66.9 85.812,-66.9 78.966,-40.412 84.286,-40.412 88.653,-60.414 "/>
<polyline fill="#FFFFFF" points="88.653,-66.9 91.494,-66.9 98.34,-40.412 92.727,-40.412 88.653,-60.414 "/>
<rect x="83.968" y="-48.906" fill="#FFFFFF" width="10.271" height="3.784"/>
<path fill="#231F20" d="M130.749-39.717h-6.189l2.366-9.286C127.836-45.546,129.109-41.536,130.749-39.717"/>
<polyline fill="#FFFFFF" points="135.285,-60.414 139.361,-40.412 144.976,-40.412 138.124,-66.9 132.442,-66.9 125.594,-40.412 
	130.918,-40.412 "/>
<rect x="130.6" y="-48.906" fill="#FFFFFF" width="10.27" height="3.784"/>
<path fill="#00529B" d="M176.046,8.789h1.195c0.504,0,0.938,0.069,1.007,0.696c0,0.949-0.718,0.949-1.141,0.949h-1.062V8.789
	 M174.862,7.824v5.941h1.184v-2.379h1.046c0.83,0.084,1.019,0.338,1.064,1.28c0.023,0.75,0.065,0.922,0.177,1.099h1.207
	c-0.135-0.246-0.135-0.365-0.188-1.375c-0.026-0.757-0.177-1.245-0.991-1.48v-0.027c0.8-0.192,1.099-0.788,1.099-1.441
	c0-1.618-1.726-1.618-2.095-1.618H174.862z M177.092,5.552c-2.925,0-5.212,2.368-5.212,5.193c0,2.844,2.302,5.2,5.212,5.2
	c2.829,0,5.185-2.314,5.185-5.2C182.276,7.905,179.978,5.552,177.092,5.552z M177.08,6.721c2.245,0,3.971,1.837,3.971,4.024
	c0,2.233-1.765,4.028-3.971,4.028c-2.218,0-3.971-1.807-3.971-4.028C173.109,8.558,174.82,6.721,177.08,6.721z"/>
</svg>
